<svg width="309" height="139" viewBox="0 0 309 139" fill="none" xmlns="http://www.w3.org/2000/svg">
<g clip-path="url(#clip0_18_246)">
<path d="M130.437 96.9311L133.844 76.5002H142.257C143.786 76.5002 145.046 76.6356 146.013 76.9176C146.991 77.1884 147.801 77.7524 148.464 78.5986C149.128 79.4447 149.454 80.4374 149.454 81.5769C149.454 82.8291 149.061 83.8896 148.273 84.7583C147.486 85.627 146.429 86.2136 145.113 86.5182C147.351 87.3079 148.464 88.7858 148.464 90.9631C148.464 92.5426 147.936 93.9415 146.856 95.1373C145.788 96.3332 144.011 96.9311 141.526 96.9311H130.426H130.437ZM137.083 92.4072H140.131C141.076 92.4072 141.728 92.2041 142.088 91.8092C142.448 91.4144 142.628 90.9744 142.628 90.5006C142.628 89.9252 142.437 89.4514 142.043 89.1017C141.649 88.752 141.064 88.5714 140.288 88.5714H137.736L137.095 92.4072H137.083ZM138.433 84.2957H140.761C142.628 84.2957 143.561 83.6753 143.561 82.4343C143.561 81.3513 142.819 80.7985 141.346 80.7985H139.018L138.433 84.2845V84.2957Z" fill="#020202"/>
<path d="M164.76 92.0123L163.95 96.9198H150.028L153.435 76.4889H159.621L157.034 92.0123H164.76Z" fill="#020202"/>
<path d="M176.895 92.7569H171.44L169.54 96.931H164.49L173.915 76.5002H180.302L183.463 96.931H177.446L176.872 92.7569H176.895ZM176.524 88.5263L175.714 82.6148L173.026 88.5263H176.524Z" fill="#020202"/>
<path d="M197.194 89.0227L202.66 89.7222C202.019 91.9559 200.928 93.7948 199.387 95.2163C197.846 96.649 195.89 97.3598 193.528 97.3598C190.964 97.3598 188.94 96.4911 187.433 94.7425C185.926 93.0051 185.172 90.7601 185.172 88.0299C185.172 84.8711 186.105 82.0846 187.961 79.659C189.817 77.2222 192.381 76.0151 195.631 76.0151C198.004 76.0151 199.916 76.7484 201.389 78.2037C202.862 79.659 203.605 81.5882 203.638 83.9799L197.891 84.3973C197.869 83.145 197.678 82.2087 197.307 81.5882C196.936 80.9677 196.317 80.6631 195.44 80.6631C193.922 80.6631 192.898 81.78 192.347 84.025C191.796 86.27 191.515 88.0412 191.515 89.3273C191.515 91.4257 192.336 92.4749 193.967 92.4749C194.776 92.4749 195.429 92.2041 195.923 91.6626C196.418 91.1211 196.846 90.2411 197.205 89.0227H197.194Z" fill="#020202"/>
<path d="M217.606 84.2393L221.509 96.9311H215.492L213.186 88.4925L210.094 91.9446L209.261 96.9311H203.593L207.001 76.5002H212.669L211.106 85.8864C211.432 85.108 211.927 84.3409 212.579 83.5737C213.231 82.8066 214.289 81.5431 215.739 79.7718L218.641 76.4889H224.455L217.606 84.2393Z" fill="#020202"/>
<path d="M235.611 88.7068H230.325L228.953 96.931H223.038L226.446 76.5002H232.361L231.113 84.0137H236.398L237.647 76.5002H243.562L240.155 96.931H234.239L235.611 88.7068Z" fill="#020202"/>
<path d="M254.449 92.7569H248.994L247.094 96.931H242.044L251.468 76.5002H257.856L261.016 96.931H255L254.426 92.7569H254.449ZM254.077 88.5263L253.268 82.6148L250.58 88.5263H254.077Z" fill="#020202"/>
<path d="M290.009 76.4889L281.597 96.9198H276.266L275.333 84.668L273.904 88.4361L270.486 96.9085H265.481L263.209 76.4776H268.889L269.62 85.7285L269.755 86.8679L269.788 87.4771C269.833 88.0412 269.867 88.4361 269.89 88.6843C270.148 87.8382 270.429 87.0484 270.722 86.3264L274.748 76.4776H279.651L280.596 88.6956C280.967 87.5448 281.372 86.4167 281.833 85.3111L285.297 76.4776H289.998L290.009 76.4889Z" fill="#020202"/>
<path d="M302.537 84.2393L306.44 96.9311H300.423L298.118 88.4925L295.025 91.9446L294.193 96.9311H288.525L291.932 76.5002H297.6L296.037 85.8864C296.363 85.108 296.858 84.3409 297.51 83.5737C298.163 82.8066 299.22 81.5431 300.67 79.7718L303.572 76.4889H309.386L302.537 84.2393Z" fill="#020202"/>
<path d="M136.735 105.979L135.25 114.869H131.922L133.406 105.979H130.954L131.393 103.339H139.693L139.254 105.979H136.724H136.735Z" fill="#020202"/>
<path d="M148.645 112.218L148.206 114.857H139.76L141.672 103.362H149.904L149.488 105.877H144.574L144.281 107.682H148.409L147.992 110.176H143.865L143.528 112.218H148.645Z" fill="#020202"/>
<path d="M157.664 110.424L160.734 110.819C160.374 112.071 159.767 113.109 158.89 113.91C158.024 114.711 156.922 115.117 155.595 115.117C154.155 115.117 153.019 114.632 152.165 113.65C151.321 112.669 150.894 111.417 150.894 109.871C150.894 108.1 151.422 106.532 152.468 105.155C153.514 103.79 154.954 103.102 156.787 103.102C158.114 103.102 159.194 103.508 160.026 104.332C160.847 105.155 161.274 106.238 161.285 107.581L158.058 107.818C158.058 107.107 157.934 106.588 157.731 106.238C157.529 105.889 157.169 105.719 156.686 105.719C155.831 105.719 155.257 106.351 154.942 107.615C154.628 108.878 154.481 109.871 154.481 110.593C154.481 111.778 154.942 112.364 155.853 112.364C156.303 112.364 156.674 112.218 156.956 111.913C157.237 111.608 157.473 111.112 157.675 110.435L157.664 110.424Z" fill="#020202"/>
<path d="M169.27 110.243H166.301L165.536 114.869H162.207L164.119 103.373H167.448L166.74 107.603H169.709L170.417 103.373H173.746L171.834 114.869H168.505L169.27 110.243Z" fill="#020202"/>
<path d="M186.319 103.373L184.408 114.869H181.866L179.673 110.458C179.077 109.251 178.694 108.292 178.537 107.592C178.537 107.761 178.548 107.897 178.548 107.987C178.548 108.303 178.503 108.72 178.425 109.228L177.48 114.857H174.691L176.603 103.362H179.684L180.944 106.024C181.821 107.863 182.383 109.228 182.653 110.108C182.642 109.882 182.631 109.702 182.631 109.589C182.631 109.262 182.709 108.641 182.856 107.716L183.587 103.362H186.331L186.319 103.373Z" fill="#020202"/>
<path d="M192.426 103.373L190.514 114.869H187.253L189.165 103.373H192.426Z" fill="#020202"/>
<path d="M200.557 110.424L203.627 110.819C203.267 112.071 202.66 113.109 201.783 113.91C200.917 114.711 199.815 115.117 198.488 115.117C197.048 115.117 195.912 114.632 195.058 113.65C194.214 112.669 193.787 111.417 193.787 109.871C193.787 108.1 194.315 106.532 195.361 105.155C196.407 103.79 197.847 103.102 199.68 103.102C201.007 103.102 202.086 103.508 202.919 104.332C203.74 105.155 204.167 106.238 204.178 107.581L200.951 107.818C200.951 107.107 200.827 106.588 200.624 106.238C200.422 105.889 200.062 105.719 199.579 105.719C198.724 105.719 198.15 106.351 197.835 107.615C197.52 108.878 197.374 109.871 197.374 110.593C197.374 111.778 197.835 112.364 198.746 112.364C199.196 112.364 199.567 112.218 199.848 111.913C200.13 111.608 200.366 111.112 200.568 110.435L200.557 110.424Z" fill="#020202"/>
<path d="M210.96 112.511H207.89L206.821 114.857H203.976L209.284 103.362H212.883L214.66 114.857H211.275L210.96 112.511ZM210.757 110.142L210.308 106.814L208.801 110.142H210.769H210.757Z" fill="#020202"/>
<path d="M224.804 112.105L224.354 114.869H216.515L218.427 103.373H221.913L220.463 112.105H224.804Z" fill="#020202"/>
<path d="M238.794 110.424L241.864 110.819C241.504 112.071 240.897 113.109 240.02 113.91C239.154 114.711 238.052 115.117 236.725 115.117C235.285 115.117 234.149 114.632 233.295 113.65C232.451 112.669 232.024 111.417 232.024 109.871C232.024 108.1 232.552 106.532 233.598 105.155C234.644 103.79 236.084 103.102 237.917 103.102C239.244 103.102 240.324 103.508 241.156 104.332C241.977 105.155 242.404 106.238 242.415 107.581L239.188 107.818C239.188 107.107 239.064 106.588 238.862 106.238C238.659 105.889 238.299 105.719 237.816 105.719C236.961 105.719 236.387 106.351 236.073 107.615C235.758 108.878 235.611 109.871 235.611 110.593C235.611 111.778 236.073 112.364 236.983 112.364C237.433 112.364 237.804 112.218 238.086 111.913C238.367 111.608 238.603 111.112 238.805 110.435L238.794 110.424Z" fill="#020202"/>
<path d="M248.747 115.162C247.386 115.162 246.216 114.722 245.216 113.831C244.215 112.94 243.72 111.665 243.72 110.006C243.72 108.077 244.282 106.441 245.395 105.099C246.509 103.756 247.96 103.08 249.759 103.08C251.198 103.08 252.379 103.553 253.302 104.49C254.224 105.426 254.685 106.656 254.685 108.179C254.685 110.119 254.134 111.766 253.043 113.131C251.941 114.485 250.512 115.162 248.747 115.162ZM248.781 112.477C249.377 112.477 249.826 112.229 250.13 111.721C250.434 111.214 250.681 110.48 250.861 109.51C251.041 108.54 251.131 107.885 251.131 107.536C251.131 106.949 250.996 106.498 250.726 106.193C250.456 105.889 250.096 105.742 249.647 105.742C248.792 105.742 248.185 106.34 247.847 107.536C247.499 108.732 247.33 109.792 247.33 110.706C247.33 111.879 247.813 112.466 248.792 112.466L248.781 112.477Z" fill="#020202"/>
<path d="M264.289 112.105L263.839 114.869H256.001L257.912 103.373H261.399L259.948 112.105H264.289Z" fill="#020202"/>
<path d="M274.208 112.105L273.758 114.869H265.919L267.831 103.373H271.318L269.867 112.105H274.208Z" fill="#020202"/>
<path d="M284.735 112.218L284.296 114.857H275.85L277.762 103.362H285.994L285.578 105.877H280.664L280.371 107.682H284.499L284.082 110.176H279.955L279.618 112.218H284.735Z" fill="#020202"/>
<path d="M292.404 108.562H297.454L296.408 114.857H294.755L294.654 113.594C294.001 114.587 292.967 115.083 291.55 115.083C290.504 115.083 289.66 114.857 288.997 114.406C288.333 113.955 287.827 113.38 287.467 112.669C287.108 111.958 286.928 111.123 286.928 110.164C286.928 108.235 287.479 106.577 288.558 105.178C289.649 103.79 291.1 103.091 292.922 103.091C295.497 103.091 297.105 104.32 297.746 106.791L294.597 107.31C294.384 106.283 293.81 105.776 292.877 105.776C292.033 105.776 291.437 106.295 291.066 107.344C290.695 108.393 290.526 109.408 290.526 110.413C290.526 111.744 291.055 112.409 292.112 112.409C292.933 112.409 293.529 111.936 293.866 110.988H291.988L292.404 108.562Z" fill="#020202"/>
<path d="M308.003 112.218L307.564 114.857H299.118L301.03 103.362H309.263L308.846 105.877H303.932L303.639 107.682H307.767L307.351 110.176H303.223L302.886 112.218H308.003Z" fill="#020202"/>
<path d="M62.5958 23.0251C31.7138 23.0251 6.67981 48.1379 6.67981 79.117C6.67981 110.096 30.6342 134.103 60.5827 135.175L66.1833 135.096C95.4009 133.246 118.523 108.889 118.523 79.117C118.523 49.345 93.489 23.0251 62.607 23.0251H62.5958Z" fill="url(#paint0_linear_18_246)"/>
<path d="M18.41 120.25C11.7635 114.192 6.73643 106.283 3.49753 97.6531C0.382336 88.9663 -0.674805 79.4672 0.416075 70.1487C0.933399 65.4894 2.04677 60.8753 3.68871 56.4529C5.31941 52.0305 7.43369 47.7774 9.99782 43.8063C12.5957 39.8464 15.6771 36.2251 19.096 32.9534C22.5148 29.6818 26.2935 26.7824 30.3759 24.3794C38.5631 19.6299 47.8075 16.6629 57.2318 16.0311C58.4126 15.9521 59.5822 15.8844 60.7631 15.8957H62.5287L64.2944 15.9747L67.8144 16.189L71.312 16.6741C71.8968 16.7644 72.4816 16.8208 73.0551 16.9336L74.7758 17.3172C75.9229 17.5879 77.0813 17.791 78.1946 18.1295C80.4214 18.8628 82.6819 19.5058 84.8186 20.476C87.0117 21.2996 89.0585 22.4277 91.139 23.4882C92.1624 24.041 93.1408 24.6953 94.1305 25.2932L95.615 26.2183L97.0207 27.2562C100.822 29.93 104.196 33.1565 107.244 36.5973L109.425 39.2711L111.405 42.0915C111.719 42.5653 112.079 43.0166 112.361 43.5129L113.226 44.9908C113.789 45.9836 114.419 46.9313 114.913 47.9692L116.409 51.0377C116.668 51.5341 116.87 52.0756 117.084 52.6059L117.702 54.1853L118.287 55.776C118.49 56.3062 118.613 56.859 118.771 57.4005L119.693 60.6496L119.288 60.785C117.804 56.5995 116.027 52.5043 113.721 48.7025C113.193 47.7322 112.507 46.841 111.911 45.9159L110.977 44.5283C110.674 44.0657 110.302 43.6483 109.965 43.2083L107.896 40.6023L105.635 38.1542C102.531 34.9954 99.1913 32.0396 95.4463 29.6479L94.0742 28.7115L92.6347 27.888C91.6676 27.3465 90.7229 26.7711 89.7332 26.2635C87.7202 25.3271 85.7521 24.323 83.649 23.601C81.6022 22.7436 79.4542 22.2134 77.3287 21.5816C76.2603 21.2996 75.1694 21.1191 74.0785 20.8934L72.4478 20.5663C71.908 20.476 71.3457 20.4309 70.8059 20.3519L67.5108 19.9571L64.1932 19.833L62.54 19.7766L60.8868 19.8217C59.7846 19.8217 58.6825 19.9232 57.5804 20.0135C48.7634 20.7355 40.1376 23.5333 32.5352 28.0459C24.8878 32.4909 18.32 38.7521 13.3154 46.0626C8.36712 53.4069 5.02701 61.868 3.72245 70.6564C2.44039 79.4334 3.03643 88.5151 5.64555 97.0213C6.9501 101.263 8.69326 105.381 10.8975 109.239C13.113 113.086 15.7446 116.696 18.7249 119.991L18.41 120.273V120.25Z" fill="#FBB704"/>
<path d="M76.1364 126.951C70.1872 128.587 63.9006 129.038 57.7377 128.316C56.1969 128.158 54.6899 127.774 53.1605 127.492C51.6197 127.255 50.1465 126.725 48.662 126.285C47.9197 126.037 47.155 125.879 46.4465 125.552L44.2872 124.649C43.5787 124.333 42.8365 124.074 42.1392 123.713L40.0812 122.596C34.6043 119.584 29.7009 115.489 25.731 110.604C21.7611 105.719 18.7134 100.056 16.8353 93.9974C14.9572 87.9392 14.2599 81.4974 14.7998 75.1346C15.2833 68.7718 17.0265 62.4767 19.9393 56.7457C20.614 55.2791 21.4912 53.9366 22.2897 52.5377C23.2119 51.2177 24.0441 49.8414 25.0788 48.6004C27.0243 46.0282 29.2848 43.7042 31.6915 41.5607L33.5359 39.9926L35.4815 38.5486C36.1225 38.0522 36.7973 37.6122 37.4833 37.1835C38.1693 36.7548 38.8328 36.281 39.5413 35.8974C42.3304 34.2503 45.2994 32.9304 48.3471 31.8135L49.9441 36.642C47.1775 37.5671 44.4447 38.6614 41.8693 40.0603C41.2058 40.3875 40.5985 40.7936 39.9687 41.1659C39.3389 41.5382 38.6979 41.9105 38.1131 42.3392L36.3024 43.5914L34.5705 44.9678C32.3101 46.8405 30.162 48.8937 28.3064 51.1952C27.3167 52.3008 26.507 53.5417 25.6186 54.7263C24.8538 55.9898 23.9879 57.197 23.3244 58.5282C20.4566 63.729 18.6235 69.5164 17.9712 75.4618C17.2627 81.3959 17.7013 87.4879 19.287 93.2867C20.8614 99.0967 23.583 104.602 27.238 109.419C30.893 114.248 35.4927 118.377 40.7222 121.479L42.6903 122.641C43.3538 123.025 44.0623 123.296 44.7483 123.623L46.8289 124.582C47.5149 124.92 48.2571 125.101 48.9769 125.371C50.4276 125.856 51.8447 126.421 53.3516 126.703C54.8474 127.03 56.3206 127.458 57.8389 127.673C63.8893 128.609 70.1422 128.372 76.1476 126.94L76.1364 126.951Z" fill="white"/>
<path d="M59.8291 30.2679C69.3321 30.0423 78.9476 32.6709 87.1011 37.8266C95.2658 42.9484 101.946 50.5409 105.995 59.442C110.066 68.3319 111.472 78.4966 109.942 88.2777C108.424 98.0588 104.105 107.434 97.47 114.97L93.7475 111.518C100 105.019 104.386 96.6034 106.186 87.612C107.996 78.6319 107.153 69.0539 103.655 60.4573C100.192 51.8382 94.1299 44.2345 86.4038 38.8983C78.7002 33.5283 69.3433 30.4823 59.8403 30.2792L59.8291 30.2679Z" fill="white"/>
<path d="M64.3616 139L39.5525 117.847L34.1544 82.0846L42.499 88.5489L36.1449 71.5702L37.1233 0.0112915L53.3741 15.7603L72.2677 81.8251C76.6649 81.1256 86.1567 80.4036 91.8248 85.7285C95.6934 89.3612 97.0092 94.923 95.7047 102.256L94.9287 106.678L91.5998 103.666C91.5998 103.666 89.4068 101.76 87.0564 102.143C86.0217 102.312 85.0321 102.91 84.1099 103.926L115.172 123.623L121.762 135.728H67.6792L62.8209 128.44L64.3503 138.989L64.3616 139Z" fill="white"/>
<path d="M117.871 133.348L113.395 125.067L80.8146 104.399C82.4678 101.703 84.4246 100.158 86.6289 99.8192C90.0365 99.3002 92.9268 101.861 92.9605 101.884L93.3316 102.222L93.4216 101.726C94.5799 95.1712 93.5003 90.2863 90.2052 87.1951C86.7751 83.9799 81.5344 83.3481 77.7557 83.4045C74.3368 83.4496 71.4466 84.025 70.5806 84.2168L51.3271 16.8772L51.3047 16.8095L39.1363 5.02029L38.8776 24.1425L47.7396 33.7318L38.8101 29.1403L38.7427 34.0364L49.7414 45.7241L38.6752 39.0229L38.5627 47.4051L52.7217 60.0743L38.4953 52.3577L38.2366 70.9948V71.0512L47.1548 94.9117L37.022 87.071L41.4642 116.471V116.572L61.2238 133.404L59.1432 119.009L68.7587 133.359H117.882L117.871 133.348Z" fill="#020202"/>
</g>
<defs>
<linearGradient id="paint0_linear_18_246" x1="15.1707" y1="49.3901" x2="110.199" y2="108.576" gradientUnits="userSpaceOnUse">
<stop stop-color="#00428D"/>
<stop offset="0.1" stop-color="#0B4A92"/>
<stop offset="0.27" stop-color="#2A60A1"/>
<stop offset="0.49" stop-color="#5C83B9"/>
<stop offset="0.51" stop-color="#6287BC"/>
<stop offset="0.58" stop-color="#4D78B2"/>
<stop offset="0.69" stop-color="#2B60A2"/>
<stop offset="0.81" stop-color="#134F96"/>
<stop offset="0.91" stop-color="#05458F"/>
<stop offset="1" stop-color="#00428D"/>
</linearGradient>
<clipPath id="clip0_18_246">
<rect width="309" height="139" fill="white"/>
</clipPath>
</defs>
</svg>
